<svg width="300" height="300" xmlns="http://www.w3.org/2000/svg">
 <g>
  <title>Layer 1</title>
  <rect stroke-width="3" rx="25" id="svg_1" height="300" width="300" y="0.1317" x="0.18438" fill="#009688"/>
  <rect stroke-width="2" rx="25" id="svg_2" height="50" width="75" y="25.1317" x="25.18438" fill="#ffffff"/>
  <rect rx="25" stroke-width="2" id="svg_3" height="175" width="250" y="100.1317" x="25.18438" stroke="#ffffff" fill="#fff"/>
  <rect rx="25" stroke-width="2" id="svg_14" height="50" width="250" y="100.1317" x="25.18438" fill="#dbdbdb" stroke="#ffffff"/>
  <rect id="svg_15" height="125" width="250" y="125.1317" x="25.18438" fill="#fff"/>
  <line id="svg_5" y2="275.1317" x2="75.18438" y1="100.1317" x1="75.18438" stroke="#009688" fill="none"/>
  <line id="svg_6" y2="275.1317" x2="126.18438" y1="100.1317" x1="126.18438" stroke="#009688" fill="none"/>
  <line id="svg_7" y2="275.1317" x2="175.18438" y1="100.1317" x1="175.18438" stroke="#009688" fill="none"/>
  <line id="svg_8" y2="275.1317" x2="225.18438" y1="100.1317" x1="225.18438" stroke="#009688" fill="none"/>
  <line id="svg_9" y2="125.1317" x2="275.18438" y1="125.1317" x1="25.18438" stroke-width="2" stroke="#009688" fill="none"/>
  <line id="svg_10" y2="175.1317" x2="275.18438" y1="175.1317" x1="25.18438" stroke="#009688" fill="none"/>
  <line id="svg_11" y2="225.1317" x2="275.18438" y1="225.1317" x1="25.18438" stroke="#009688" fill="none"/>
  <rect rx="25" stroke-width="2" id="svg_16" height="175" width="250" y="100.1317" x="25.18438" stroke="#ffffff" fill="none"/>
  <text stroke-dasharray="2,2" xml:space="preserve" text-anchor="start" font-family="'Cabin'" font-size="30" id="svg_17" y="60.1317" x="40.18438" stroke-width="0" stroke="#dbdbdb" fill="#009688">CDI</text>
 </g>

</svg>
