<svg width="300" height="300" xmlns="http://www.w3.org/2000/svg">
 <g>
  <title>Layer 1</title>
  <rect stroke-width="3" rx="25" id="svg_1" height="300" width="300" y="0.17743" x="0.17743" fill="#ffffff"/>
  <rect stroke-width="2" rx="25" id="svg_2" height="50" width="75" y="25.17743" x="25.17743" fill="#009688"/>
  <rect rx="25" stroke-width="2" id="svg_3" height="175" width="250" y="100.17743" x="25.17743" stroke="#009688" fill="#009688"/>
  <rect rx="25" stroke-width="2" id="svg_14" height="50" width="250" y="100.17743" x="25.17743" fill="#ffffff" stroke="#009688"/>
  <rect id="svg_15" height="125" width="250" y="125.17743" x="25.17743" fill="#009688"/>
  <line id="svg_5" y2="275.17743" x2="75.17743" y1="100.17743" x1="75.17743" stroke="#ffffff" fill="none"/>
  <line id="svg_6" y2="275.17743" x2="126.17743" y1="100.17743" x1="126.17743" stroke="#ffffff" fill="none"/>
  <line id="svg_7" y2="275.17743" x2="175.17743" y1="100.17743" x1="175.17743" stroke="#ffffff" fill="none"/>
  <line id="svg_8" y2="275.17743" x2="225.17743" y1="100.17743" x1="225.17743" stroke="#ffffff" fill="none"/>
  <line id="svg_9" y2="125.17743" x2="275.17743" y1="125.17743" x1="25.17743" stroke-width="2" stroke="#ffffff" fill="none"/>
  <line id="svg_10" y2="175.17743" x2="275.17743" y1="175.17743" x1="25.17743" stroke="#ffffff" fill="none"/>
  <line id="svg_11" y2="225.17743" x2="275.17743" y1="225.17743" x1="25.17743" stroke="#ffffff" fill="none"/>
  <rect rx="25" stroke-width="2" id="svg_16" height="175" width="250" y="100.17743" x="25.17743" stroke="#009688" fill="none"/>
  <!--
  <text stroke-dasharray="2,2" xml:space="preserve" text-anchor="start" font-family="'Cabin'" font-size="30" id="svg_17" y="60.17743" x="40.17743" stroke-width="0" stroke="#dbdbdb" fill="#ffffff">CDI</text>
  -->
 </g>

</svg>
